<svg width="1178" height="247" viewBox="0 0 1178 247" fill="none" xmlns="http://www.w3.org/2000/svg">
<path d="M15.229 185.516V185.25C15.229 159.432 10.4198 154.641 0 154.641V154.108C10.4198 154.108 15.229 149.318 15.229 123.766V123.5C15.229 97.6819 10.4198 92.8909 0 92.8909V92.3586C10.4198 92.3586 15.229 87.5676 15.229 62.0161V61.75C15.229 35.9321 10.4198 31.1411 0 31.1411V30.6088C10.4198 30.6088 15.229 25.8178 15.229 0H15.7633C15.7633 25.8178 20.5724 30.6088 30.9923 30.6088H92.9768C103.397 30.6088 108.206 25.8178 108.206 0H108.74C108.74 25.8178 113.549 30.6088 123.969 30.6088V31.1411C113.549 31.1411 108.74 35.9321 108.74 61.4836V61.75V62.0161C108.74 87.5676 113.549 92.3586 123.969 92.3586C134.389 92.3586 139.198 87.5676 139.198 61.75H139.732C139.732 87.5676 144.541 92.3586 154.961 92.3586V92.8909C144.541 92.8909 139.732 97.6819 139.732 123.234V123.5V123.766C139.732 149.318 144.541 154.108 154.961 154.108V154.641C144.541 154.641 139.732 159.432 139.732 184.983V185.25V185.516C139.732 211.067 144.541 215.858 154.961 215.858V216.392C144.541 216.392 139.732 221.181 139.732 247H139.198C139.198 221.181 134.389 216.392 123.969 216.392C113.549 216.392 108.74 221.181 108.74 247H108.206C108.206 221.181 103.397 216.392 92.9768 216.392V215.858C103.397 215.858 108.206 211.067 108.206 185.516V185.25C108.206 159.432 103.397 154.641 92.9768 154.641C82.5569 154.641 77.7477 159.432 77.7477 185.25H77.2135C77.2135 159.432 72.4043 154.641 61.9844 154.641C51.5646 154.641 46.7556 159.432 46.7556 184.983V185.25V185.516C46.7556 211.067 51.5646 215.858 61.9844 215.858V216.392C51.5646 216.392 46.7556 221.181 46.7556 247H46.2211C46.2211 221.181 41.4122 216.392 30.9923 216.392C20.5724 216.392 15.7633 221.181 15.7633 247H15.229C15.229 221.181 10.4198 216.392 0 216.392V215.858C10.4198 215.858 15.229 211.067 15.229 185.516ZM46.7556 123.766C46.7556 149.318 51.5646 154.108 61.9844 154.108C72.4043 154.108 77.2135 149.318 77.2135 123.5C77.2135 97.6819 72.4043 92.8909 61.9844 92.8909C51.5646 92.8909 46.7556 97.6819 46.7556 123.234V123.5V123.766ZM46.7556 62.0161C46.7556 87.5676 51.5646 92.3586 61.9844 92.3586C72.4043 92.3586 77.2135 87.5676 77.2135 62.0161H46.7556ZM77.7477 123.5C77.7477 149.318 82.5569 154.108 92.9768 154.108C103.397 154.108 108.206 149.318 108.206 123.766V123.5C108.206 97.6819 103.397 92.8909 92.9768 92.8909C82.5569 92.8909 77.7477 97.6819 77.7477 123.5ZM309.943 31.1411C299.523 31.1411 294.715 35.9321 294.715 61.75C294.715 87.5676 299.523 92.3586 309.943 92.3586V92.8909C299.523 92.8909 294.715 97.6819 294.715 123.5C294.715 149.318 299.523 154.108 309.943 154.108V154.641C299.523 154.641 294.715 159.432 294.715 185.25C294.715 211.067 299.523 215.858 309.943 215.858V216.392C299.523 216.392 294.715 221.181 294.715 247H294.18C294.18 221.181 289.37 216.392 278.95 216.392C268.53 216.392 263.723 221.181 263.723 247H263.188C263.188 221.181 258.378 216.392 247.958 216.392V215.858C258.378 215.858 263.188 211.067 263.188 185.25C263.188 159.432 258.378 154.641 247.958 154.641C237.538 154.641 232.731 159.432 232.731 185.25H232.195C232.195 159.432 227.386 154.641 216.966 154.641C206.547 154.641 201.738 159.432 201.738 185.25C201.738 211.067 206.547 215.858 216.966 215.858V216.392C206.547 216.392 201.738 221.181 201.738 247H201.203C201.203 221.181 196.394 216.392 185.974 216.392C175.555 216.392 170.745 221.181 170.745 247H170.211C170.211 221.181 165.402 216.392 154.982 216.392V215.858C165.402 215.858 170.211 211.067 170.211 185.25C170.211 159.432 165.402 154.641 154.982 154.641V154.108C165.402 154.108 170.211 149.318 170.211 123.5C170.211 97.6819 165.402 92.8909 154.982 92.8909V92.3586C165.402 92.3586 170.211 87.5676 170.211 61.75C170.211 35.9321 165.402 31.1411 154.982 31.1411V30.6088C165.402 30.6088 170.211 25.8178 170.211 0H170.745C170.745 25.8178 175.555 30.6088 185.974 30.6088H278.95C289.37 30.6088 294.18 25.8178 294.18 0H294.715C294.715 25.8178 299.523 30.6088 309.943 30.6088V31.1411ZM170.745 123.5C170.745 149.318 175.555 154.108 185.974 154.108C196.394 154.108 201.203 149.318 201.203 123.5C201.203 97.6819 196.394 92.8909 185.974 92.8909C175.555 92.8909 170.745 97.6819 170.745 123.5ZM201.738 62.0161C201.738 87.5676 206.547 92.3586 216.966 92.3586C227.386 92.3586 232.195 87.5676 232.195 62.0161H201.738ZM232.731 62.0161C232.731 87.5676 237.538 92.3586 247.958 92.3586C258.378 92.3586 263.188 87.5676 263.188 62.0161H232.731ZM263.723 123.5C263.723 149.318 268.53 154.108 278.95 154.108C289.37 154.108 294.18 149.318 294.18 123.5C294.18 97.6819 289.37 92.8909 278.95 92.8909C268.53 92.8909 263.723 97.6819 263.723 123.5ZM325.194 185.516V185.25C325.194 159.432 320.384 154.641 309.964 154.641V154.108C320.384 154.108 325.194 149.318 325.194 123.766V123.5C325.194 97.6819 320.384 92.8909 309.964 92.8909V92.3586C320.384 92.3586 325.194 87.5676 325.194 62.0161V61.75C325.194 35.9321 320.384 31.1411 309.964 31.1411V30.6088C320.384 30.6088 325.194 25.8178 325.194 0H325.727C325.727 25.8178 330.537 30.6088 340.957 30.6088H433.934C444.354 30.6088 449.163 25.8178 449.163 0H449.696C449.696 25.8178 454.506 30.6088 464.926 30.6088V31.1411C454.506 31.1411 449.696 35.9321 449.696 61.4836V61.75V62.0161C449.696 87.5676 454.506 92.3586 464.926 92.3586V92.8909C454.506 92.8909 449.696 97.6819 449.696 123.5C449.696 149.318 454.506 154.108 464.926 154.108V154.641C454.506 154.641 449.696 159.432 449.696 184.983V185.25V185.516C449.696 211.067 454.506 215.858 464.926 215.858V216.392C454.506 216.392 449.696 221.181 449.696 247H449.163C449.163 221.181 444.354 216.392 433.934 216.392C423.514 216.392 418.704 221.181 418.704 247H418.171C418.171 221.181 413.361 216.392 402.941 216.392V215.858C413.361 215.858 418.171 211.067 418.171 185.516V185.25C418.171 159.432 413.361 154.641 402.941 154.641C392.521 154.641 387.712 159.432 387.712 185.25H387.178C387.178 159.432 382.369 154.641 371.949 154.641C361.529 154.641 356.72 159.432 356.72 184.983V185.25V185.516C356.72 211.067 361.529 215.858 371.949 215.858V216.392C361.529 216.392 356.72 221.181 356.72 247H356.186C356.186 221.181 351.377 216.392 340.957 216.392C330.537 216.392 325.727 221.181 325.727 247H325.194C325.194 221.181 320.384 216.392 309.964 216.392V215.858C320.384 215.858 325.194 211.067 325.194 185.516ZM356.72 123.766C356.72 149.318 361.529 154.108 371.949 154.108C382.369 154.108 387.178 149.318 387.178 123.766V123.5C387.178 97.6819 382.369 92.8909 371.949 92.8909C361.529 92.8909 356.72 97.6819 356.72 123.234V123.5V123.766ZM356.72 62.0161C356.72 87.5676 361.529 92.3586 371.949 92.3586C382.369 92.3586 387.178 87.5676 387.178 62.0161H356.72ZM387.712 62.0161C387.712 87.5676 392.521 92.3586 402.941 92.3586C413.361 92.3586 418.171 87.5676 418.171 62.0161H387.712ZM418.704 123.766C418.704 149.318 423.514 154.108 433.934 154.108C444.354 154.108 449.163 149.318 449.163 123.5C449.163 97.6819 444.354 92.8909 433.934 92.8909C423.514 92.8909 418.704 97.6819 418.704 123.234V123.5V123.766ZM480.175 185.516V185.25C480.175 159.432 475.365 154.641 464.945 154.641V154.108C475.365 154.108 480.175 149.318 480.175 123.766V123.5C480.175 97.6819 475.365 92.8909 464.945 92.8909V92.3586C475.365 92.3586 480.175 87.5676 480.175 62.0161V61.75C480.175 35.9321 475.365 31.1411 464.945 31.1411V30.6088C475.365 30.6088 480.175 25.8178 480.175 0H480.71C480.71 25.8178 485.52 30.6088 495.938 30.6088H588.915C599.335 30.6088 604.144 25.8178 604.144 0H604.68C604.68 25.8178 609.487 30.6088 619.907 30.6088V31.1411C609.487 31.1411 604.68 35.9321 604.68 61.4836V61.75V62.0161C604.68 87.5676 609.487 92.3586 619.907 92.3586V92.8909C609.487 92.8909 604.68 97.6819 604.68 123.5C604.68 149.318 609.487 154.108 619.907 154.108V154.641C609.487 154.641 604.68 159.432 604.68 184.983V185.25V185.516C604.68 211.067 609.487 215.858 619.907 215.858V216.392C609.487 216.392 604.68 221.181 604.68 247H604.144C604.144 221.181 599.335 216.392 588.915 216.392H495.938C485.52 216.392 480.71 221.181 480.71 247H480.175C480.175 221.181 475.365 216.392 464.945 216.392V215.858C475.365 215.858 480.175 211.067 480.175 185.516ZM511.703 184.983H542.159C542.159 159.432 537.35 154.641 526.93 154.641C516.51 154.641 511.703 159.432 511.703 184.983ZM511.703 123.766C511.703 149.318 516.51 154.108 526.93 154.108C537.35 154.108 542.159 149.318 542.159 123.5C542.159 97.6819 537.35 92.8909 526.93 92.8909C516.51 92.8909 511.703 97.6819 511.703 123.234V123.5V123.766ZM511.703 62.0161C511.703 87.5676 516.51 92.3586 526.93 92.3586C537.35 92.3586 542.159 87.5676 542.159 62.0161H511.703ZM542.695 184.983H573.152C573.152 159.432 568.342 154.641 557.922 154.641C547.502 154.641 542.695 159.432 542.695 184.983ZM542.695 123.5C542.695 149.318 547.502 154.108 557.922 154.108C568.342 154.108 573.152 149.318 573.152 123.5C573.152 97.6819 568.342 92.8909 557.922 92.8909C547.502 92.8909 542.695 97.6819 542.695 123.5ZM542.695 62.0161C542.695 87.5676 547.502 92.3586 557.922 92.3586C568.342 92.3586 573.152 87.5676 573.152 62.0161H542.695ZM573.687 123.5C573.687 149.318 578.495 154.108 588.915 154.108C599.335 154.108 604.144 149.318 604.144 123.5C604.144 97.6819 599.335 92.8909 588.915 92.8909C578.495 92.8909 573.687 97.6819 573.687 123.5ZM635.158 185.516V185.25C635.158 159.432 630.349 154.641 619.929 154.641V154.108C630.349 154.108 635.158 149.318 635.158 123.766V123.5C635.158 97.6819 630.349 92.8909 619.929 92.8909V92.3586C630.349 92.3586 635.158 87.5676 635.158 62.0161V61.75C635.158 35.9321 630.349 31.1411 619.929 31.1411V30.6088C630.349 30.6088 635.158 25.8178 635.158 0H635.691C635.691 25.8178 640.501 30.6088 650.921 30.6088H743.898C754.318 30.6088 759.127 25.8178 759.127 0H759.661C759.661 25.8178 764.47 30.6088 774.89 30.6088V31.1411C764.47 31.1411 759.661 35.9321 759.661 61.4836V61.75V62.0161C759.661 87.5676 764.47 92.3586 774.89 92.3586V92.8909C764.47 92.8909 759.661 97.6819 759.661 123.234V123.5V123.766C759.661 149.318 764.47 154.108 774.89 154.108V154.641C764.47 154.641 759.661 159.432 759.661 184.983V185.25V185.516C759.661 211.067 764.47 215.858 774.89 215.858V216.392C764.47 216.392 759.661 221.181 759.661 247H759.127C759.127 221.181 754.318 216.392 743.898 216.392H650.921C640.501 216.392 635.691 221.181 635.691 247H635.158C635.158 221.181 630.349 216.392 619.929 216.392V215.858C630.349 215.858 635.158 211.067 635.158 185.516ZM666.684 184.983H697.143C697.143 159.432 692.333 154.641 681.913 154.641C671.493 154.641 666.684 159.432 666.684 184.983ZM666.684 123.766C666.684 149.318 671.493 154.108 681.913 154.108C692.333 154.108 697.143 149.318 697.143 123.5C697.143 97.6819 692.333 92.8909 681.913 92.8909C671.493 92.8909 666.684 97.6819 666.684 123.234V123.5V123.766ZM666.684 62.0161C666.684 87.5676 671.493 92.3586 681.913 92.3586C692.333 92.3586 697.143 87.5676 697.143 62.0161H666.684ZM697.676 184.983H728.135C728.135 159.432 723.326 154.641 712.906 154.641C702.486 154.641 697.676 159.432 697.676 184.983ZM697.676 123.5C697.676 149.318 702.486 154.108 712.906 154.108C723.326 154.108 728.135 149.318 728.135 123.766V123.5C728.135 97.6819 723.326 92.8909 712.906 92.8909C702.486 92.8909 697.676 97.6819 697.676 123.5ZM697.676 62.0161C697.676 87.5676 702.486 92.3586 712.906 92.3586C723.326 92.3586 728.135 87.5676 728.135 62.0161H697.676ZM852.124 185.516V185.25C852.124 159.432 847.314 154.641 836.894 154.641V154.108C847.314 154.108 852.124 149.318 852.124 123.766V123.5C852.124 97.6819 847.314 92.8909 836.894 92.8909C826.474 92.8909 821.667 97.6819 821.667 123.5H821.131C821.131 97.6819 816.322 92.8909 805.902 92.8909C795.484 92.8909 790.675 97.6819 790.675 123.5H790.139C790.139 97.6819 785.33 92.8909 774.91 92.8909V92.3586C785.33 92.3586 790.139 87.5676 790.139 62.0161V61.75C790.139 35.9321 785.33 31.1411 774.91 31.1411V30.6088C785.33 30.6088 790.139 25.8178 790.139 0H790.675C790.675 25.8178 795.484 30.6088 805.902 30.6088H929.871C940.291 30.6088 945.101 25.8178 945.101 0H945.634C945.634 25.8178 950.444 30.6088 960.864 30.6088V31.1411C950.444 31.1411 945.634 35.9321 945.634 61.4836V61.75V62.0161C945.634 87.5676 950.444 92.3586 960.864 92.3586V92.8909C950.444 92.8909 945.634 97.6819 945.634 123.5H945.101C945.101 97.6819 940.291 92.8909 929.871 92.8909C919.451 92.8909 914.644 97.6819 914.644 123.5H914.108C914.108 97.6819 909.299 92.8909 898.879 92.8909C888.459 92.8909 883.652 97.6819 883.652 123.234V123.5V123.766C883.652 149.318 888.459 154.108 898.879 154.108V154.641C888.459 154.641 883.652 159.432 883.652 184.983V185.25V185.516C883.652 211.067 888.459 215.858 898.879 215.858V216.392C888.459 216.392 883.652 221.181 883.652 247H883.116C883.116 221.181 878.307 216.392 867.887 216.392C857.467 216.392 852.659 221.181 852.659 247H852.124C852.124 221.181 847.314 216.392 836.894 216.392V215.858C847.314 215.858 852.124 211.067 852.124 185.516ZM821.667 62.0161C821.667 87.5676 826.474 92.3586 836.894 92.3586C847.314 92.3586 852.124 87.5676 852.124 62.0161H821.667ZM883.652 62.0161C883.652 87.5676 888.459 92.3586 898.879 92.3586C909.299 92.3586 914.108 87.5676 914.108 62.0161H883.652ZM976.171 185.516V185.25C976.171 159.432 971.361 154.641 960.941 154.641V154.108C971.361 154.108 976.171 149.318 976.171 123.766V123.5C976.171 97.6819 971.361 92.8909 960.941 92.8909V92.3586C971.361 92.3586 976.171 87.5676 976.171 62.0161V61.75C976.171 35.9321 971.361 31.1411 960.941 31.1411V30.6088C971.361 30.6088 976.171 25.8178 976.171 0H976.704C976.704 25.8178 981.514 30.6088 991.934 30.6088C1002.35 30.6088 1007.16 25.8178 1007.16 0H1007.7C1007.7 25.8178 1012.51 30.6088 1022.93 30.6088V31.1411C1012.51 31.1411 1007.7 35.9321 1007.7 61.4836V61.75V62.0161C1007.7 87.5676 1012.51 92.3586 1022.93 92.3586V92.8909C1012.51 92.8909 1007.7 97.6819 1007.7 123.234V123.5V123.766C1007.7 149.318 1012.51 154.108 1022.93 154.108V154.641C1012.51 154.641 1007.7 159.432 1007.7 184.983V185.25V185.516C1007.7 211.067 1012.51 215.858 1022.93 215.858V216.392C1012.51 216.392 1007.7 221.181 1007.7 247H1007.16C1007.16 221.181 1002.35 216.392 991.934 216.392C981.514 216.392 976.704 221.181 976.704 247H976.171C976.171 221.181 971.361 216.392 960.941 216.392V215.858C971.361 215.858 976.171 211.067 976.171 185.516ZM1038.27 185.516V185.25C1038.27 159.432 1033.46 154.641 1023.04 154.641V154.108C1033.46 154.108 1038.27 149.318 1038.27 123.766V123.5C1038.27 97.6819 1033.46 92.8909 1023.04 92.8909V92.3586C1033.46 92.3586 1038.27 87.5676 1038.27 62.0161V61.75C1038.27 35.9321 1033.46 31.1411 1023.04 31.1411V30.6088C1033.46 30.6088 1038.27 25.8178 1038.27 0H1038.8C1038.8 25.8178 1043.61 30.6088 1054.03 30.6088H1147.01C1157.43 30.6088 1162.24 25.8178 1162.24 0H1162.77C1162.77 25.8178 1167.58 30.6088 1178 30.6088V31.1411C1167.58 31.1411 1162.77 35.9321 1162.77 61.4836V61.75V62.0161C1162.77 87.5676 1167.58 92.3586 1178 92.3586V92.8909C1167.58 92.8909 1162.77 97.6819 1162.77 123.5C1162.77 149.318 1167.58 154.108 1178 154.108V154.641C1167.58 154.641 1162.77 159.432 1162.77 184.983V185.25V185.516C1162.77 211.067 1167.58 215.858 1178 215.858V216.392C1167.58 216.392 1162.77 221.181 1162.77 247H1162.24C1162.24 221.181 1157.43 216.392 1147.01 216.392H1054.03C1043.61 216.392 1038.8 221.181 1038.8 247H1038.27C1038.27 221.181 1033.46 216.392 1023.04 216.392V215.858C1033.46 215.858 1038.27 211.067 1038.27 185.516ZM1069.79 184.983H1100.25C1100.25 159.432 1095.44 154.641 1085.02 154.641C1074.6 154.641 1069.79 159.432 1069.79 184.983ZM1069.79 123.766C1069.79 149.318 1074.6 154.108 1085.02 154.108C1095.44 154.108 1100.25 149.318 1100.25 123.5C1100.25 97.6819 1095.44 92.8909 1085.02 92.8909C1074.6 92.8909 1069.79 97.6819 1069.79 123.234V123.5V123.766ZM1069.79 62.0161C1069.79 87.5676 1074.6 92.3586 1085.02 92.3586C1095.44 92.3586 1100.25 87.5676 1100.25 62.0161H1069.79ZM1100.79 184.983H1131.24C1131.24 159.432 1126.44 154.641 1116.02 154.641C1105.6 154.641 1100.79 159.432 1100.79 184.983ZM1100.79 123.5C1100.79 149.318 1105.6 154.108 1116.02 154.108C1126.44 154.108 1131.24 149.318 1131.24 123.5C1131.24 97.6819 1126.44 92.8909 1116.02 92.8909C1105.6 92.8909 1100.79 97.6819 1100.79 123.5ZM1100.79 62.0161C1100.79 87.5676 1105.6 92.3586 1116.02 92.3586C1126.44 92.3586 1131.24 87.5676 1131.24 62.0161H1100.79ZM1131.78 123.5C1131.78 149.318 1136.59 154.108 1147.01 154.108C1157.43 154.108 1162.24 149.318 1162.24 123.5C1162.24 97.6819 1157.43 92.8909 1147.01 92.8909C1136.59 92.8909 1131.78 97.6819 1131.78 123.5Z" fill="black"/>
</svg>
